<?xml version="1.0" encoding="UTF-8"?>
<!DOCTYPE svg PUBLIC "-//W3C//DTD SVG 1.1//EN" "http://www.w3.org/Graphics/SVG/1.1/DTD/svg11.dtd">

<svg xmlns="http://www.w3.org/2000/svg"
     xmlns:xlink="http://www.w3.org/1999/xlink" xmlns:ev="http://www.w3.org/2001/xml-events"
     version="1.1" baseProfile="full"
     width="570" height="520" viewBox="-10 -10 570 520">

  <title>SHA256 Überblick</title>

  <rect x="0" y="0" width="400" height="50" style="fill:lightgreen;stroke-width:2;stroke:black" />
  <text x="200" y="32" text-anchor="middle" style="font-family: Arial; font-size: 20px;">Konstanten</text>

  <line x1="200" y1="50" x2="200" y2="75" style="stroke:black;stroke-width:2" />

  <rect x="0" y="75" width="400" height="50" style="fill:lightblue;stroke-width:2;stroke:black" />
  <text x="200" y="108" text-anchor="middle" style="font-family: Arial; font-size: 20px;">Berechnung 1</text>

  <line x1="200" y1="125" x2="200" y2="150" style="stroke:black;stroke-width:2" />
  <text x="200" y="175" text-anchor="middle" style="font-family: Arial; font-size: 20px;">...</text>
  <line x1="200" y1="200" x2="200" y2="225" style="stroke:black;stroke-width:2" />

  <rect x="0" y="225" width="400" height="50" style="fill:lightblue;stroke-width:2;stroke:black" />
  <text x="200" y="257" text-anchor="middle" style="font-family: Arial; font-size: 20px;">Berechnung 16</text>

  <line x1="200" y1="275" x2="200" y2="300" style="stroke:black;stroke-width:2" />

  <rect x="0" y="300" width="400" height="50" style="fill:lightblue;stroke-width:2;stroke:black" />
  <text x="200" y="332" text-anchor="middle" style="font-family: Arial; font-size: 20px;">Berechnung 17</text>

  <line x1="200" y1="350" x2="200" y2="375" style="stroke:black;stroke-width:2" />
  <text x="200" y="400" text-anchor="middle" style="font-family: Arial; font-size: 20px;">...</text>
  <line x1="200" y1="425" x2="200" y2="450" style="stroke:black;stroke-width:2" />

  <rect x="0" y="450" width="400" height="50" style="fill:lightblue;stroke-width:2;stroke:black" />
  <text x="200" y="482" text-anchor="middle" style="font-family: Arial; font-size: 20px;">Berechnung 64</text>

  <line x1="400" y1="100" x2="425" y2="100" style="stroke:black;stroke-width:2" />
  <rect x="425" y="75" width="50" height="50" style="fill:lightgreen;stroke-width:2;stroke:black" />
  <text x="450" y="108" text-anchor="middle" style="font-family: Arial; font-size: 20px;">K1</text>

  <text x="450" y="175" text-anchor="middle" style="font-family: Arial; font-size: 20px;">...</text>

  <line x1="400" y1="250" x2="425" y2="250" style="stroke:black;stroke-width:2" />
  <rect x="425" y="225" width="50" height="50" style="fill:lightgreen;stroke-width:2;stroke:black" />
  <text x="450" y="257" text-anchor="middle" style="font-family: Arial; font-size: 20px;">K16</text>

  <line x1="400" y1="325" x2="425" y2="325" style="stroke:black;stroke-width:2" />
  <rect x="425" y="300" width="50" height="50" style="fill:lightgreen;stroke-width:2;stroke:black" />
  <text x="450" y="332" text-anchor="middle" style="font-family: Arial; font-size: 20px;">K17</text>

  <text x="450" y="400" text-anchor="middle" style="font-family: Arial; font-size: 20px;">...</text>

  <line x1="400" y1="475" x2="425" y2="475" style="stroke:black;stroke-width:2" />
  <rect x="425" y="450" width="50" height="50" style="fill:lightgreen;stroke-width:2;stroke:black" />
  <text x="450" y="482" text-anchor="middle" style="font-family: Arial; font-size: 20px;">K64</text>

  <rect x="510" y="125" width="30" height="325" style="fill:darkgrey;stroke:none" />

  <line x1="475" y1="100" x2="500" y2="100" style="stroke:black;stroke-width:2" />
  <rect x="500" y="75" width="50" height="50" style="fill:coral;stroke-width:2;stroke:black" />
  <text x="525" y="108" text-anchor="middle" style="font-family: Arial; font-size: 20px;">I1</text>

  <text x="525" y="175" text-anchor="middle" style="font-family: Arial; font-size: 20px;">...</text>

  <line x1="475" y1="250" x2="500" y2="250" style="stroke:black;stroke-width:2" />
  <rect x="500" y="225" width="50" height="50" style="fill:coral;stroke-width:2;stroke:black" />
  <text x="525" y="257" text-anchor="middle" style="font-family: Arial; font-size: 20px;">I16</text>

  <line x1="475" y1="325" x2="500" y2="325" style="stroke:black;stroke-width:2" />
  <rect x="500" y="300" width="50" height="50" style="fill:khaki;stroke-width:2;stroke:black" />
  <text x="525" y="332" text-anchor="middle" style="font-family: Arial; font-size: 20px;">E1</text>

  <text x="525" y="400" text-anchor="middle" style="font-family: Arial; font-size: 20px;">...</text>

  <line x1="475" y1="475" x2="500" y2="475" style="stroke:black;stroke-width:2" />
  <rect x="500" y="450" width="50" height="50" style="fill:khaki;stroke-width:2;stroke:black" />
  <text x="525" y="482" text-anchor="middle" style="font-family: Arial; font-size: 20px;">E48</text>
</svg>
