<?xml version="1.0" encoding="UTF-8"?>
<!DOCTYPE svg PUBLIC "-//W3C//DTD SVG 1.1//EN" "http://www.w3.org/Graphics/SVG/1.1/DTD/svg11.dtd">

<svg xmlns="http://www.w3.org/2000/svg"
     xmlns:xlink="http://www.w3.org/1999/xlink" xmlns:ev="http://www.w3.org/2001/xml-events"
     version="1.1" baseProfile="full"
     width="1245" height="595" viewBox="-10 -10 1245 595">

  <title>Kern Multi</title>

  <defs>
    <polygon id="pfeil" points="-5,-5 5,0 -5,5" style="stroke:black;stroke-width:3;fill:black" />

    <g id="struktur">
      <rect x="25" y="0" width="400" height="50" style="fill:lightgreen;stroke-width:2;stroke:black" />
      <text x="225" y="32" text-anchor="middle" style="font-family: Arial; font-size: 20px;">Konstanten</text>

      <line x1="225" y1="50" x2="225" y2="75" style="stroke:black;stroke-width:2" />
      <use xlink:href="#pfeil" transform="translate(225, 62) rotate(90)"/>

      <rect x="25" y="75" width="400" height="50" style="fill:lightblue;stroke-width:2;stroke:black" />
      <text x="225" y="108" text-anchor="middle" style="font-family: Arial; font-size: 20px;">Runde 1</text>

      <line x1="225" y1="125" x2="225" y2="150" style="stroke:black;stroke-width:2" />
      <use xlink:href="#pfeil" transform="translate(225, 137) rotate(90)"/>
      <text x="225" y="175" text-anchor="middle" style="font-family: Arial; font-size: 20px;">...</text>
      <line x1="225" y1="200" x2="225" y2="225" style="stroke:black;stroke-width:2" />
      <use xlink:href="#pfeil" transform="translate(225, 212) rotate(90)"/>

      <rect x="25" y="225" width="400" height="50" style="fill:lightblue;stroke-width:2;stroke:black" />
      <text x="225" y="257" text-anchor="middle" style="font-family: Arial; font-size: 20px;">Runde 16</text>

      <line x1="225" y1="275" x2="225" y2="300" style="stroke:black;stroke-width:2" />
      <use xlink:href="#pfeil" transform="translate(225, 287) rotate(90)"/>

      <rect x="25" y="300" width="400" height="50" style="fill:lightblue;stroke-width:2;stroke:black" />
      <text x="225" y="332" text-anchor="middle" style="font-family: Arial; font-size: 20px;">Runde 17</text>

      <line x1="225" y1="350" x2="225" y2="375" style="stroke:black;stroke-width:2" />
      <use xlink:href="#pfeil" transform="translate(225, 362) rotate(90)"/>
      <text x="225" y="400" text-anchor="middle" style="font-family: Arial; font-size: 20px;">...</text>
      <line x1="225" y1="425" x2="225" y2="450" style="stroke:black;stroke-width:2" />
      <use xlink:href="#pfeil" transform="translate(225, 437) rotate(90)"/>

      <rect x="25" y="450" width="400" height="50" style="fill:lightblue;stroke-width:2;stroke:black" />
      <text x="225" y="482" text-anchor="middle" style="font-family: Arial; font-size: 20px;">Runde 64</text>

      <line x1="225" y1="500" x2="225" y2="525" style="stroke:black;stroke-width:2" />
      <use xlink:href="#pfeil" transform="translate(225, 512) rotate(90)"/>

      <rect x="25" y="525" width="400" height="50" style="fill:lightblue;stroke-width:2;stroke:black" />
      <text x="225" y="557" text-anchor="middle" style="font-family: Arial; font-size: 20px;">Addition</text>

      <line x1="0" y1="25" x2="25" y2="25" style="stroke:black;stroke-width:2" />
      <line x1="0" y1="25" x2="0" y2="550" style="stroke:black;stroke-width:2" />
      <line x1="0" y1="550" x2="25" y2="550" style="stroke:black;stroke-width:2" />

      <line x1="425" y1="100" x2="450" y2="100" style="stroke:black;stroke-width:2" />
      <use xlink:href="#pfeil" transform="translate(437, 100) rotate(180)"/>
      <rect x="450" y="75" width="50" height="50" style="fill:lightgreen;stroke-width:2;stroke:black" />
      <text x="475" y="108" text-anchor="middle" style="font-family: Arial; font-size: 20px;">K1</text>

      <text x="475" y="175" text-anchor="middle" style="font-family: Arial; font-size: 20px;">...</text>

      <line x1="425" y1="250" x2="450" y2="250" style="stroke:black;stroke-width:2" />
      <use xlink:href="#pfeil" transform="translate(437, 250) rotate(180)"/>
      <rect x="450" y="225" width="50" height="50" style="fill:lightgreen;stroke-width:2;stroke:black" />
      <text x="475" y="257" text-anchor="middle" style="font-family: Arial; font-size: 20px;">K16</text>

      <line x1="425" y1="325" x2="450" y2="325" style="stroke:black;stroke-width:2" />
      <use xlink:href="#pfeil" transform="translate(437, 325) rotate(180)"/>
      <rect x="450" y="300" width="50" height="50" style="fill:lightgreen;stroke-width:2;stroke:black" />
      <text x="475" y="332" text-anchor="middle" style="font-family: Arial; font-size: 20px;">K17</text>

      <text x="475" y="400" text-anchor="middle" style="font-family: Arial; font-size: 20px;">...</text>

      <line x1="425" y1="475" x2="450" y2="475" style="stroke:black;stroke-width:2" />
      <use xlink:href="#pfeil" transform="translate(437, 475) rotate(180)"/>
      <rect x="450" y="450" width="50" height="50" style="fill:lightgreen;stroke-width:2;stroke:black" />
      <text x="475" y="482" text-anchor="middle" style="font-family: Arial; font-size: 20px;">K64</text>

      <rect x="535" y="125" width="30" height="325" style="fill:darkgrey;stroke:none" />

      <line x1="500" y1="100" x2="525" y2="100" style="stroke:black;stroke-width:2" />
      <use xlink:href="#pfeil" transform="translate(512, 100) rotate(180)"/>
      <rect x="525" y="75" width="50" height="50" style="fill:coral;stroke-width:2;stroke:black" />
      <text x="550" y="108" text-anchor="middle" style="font-family: Arial; font-size: 20px;">I1</text>

      <text x="550" y="175" text-anchor="middle" style="font-family: Arial; font-size: 20px;">...</text>

      <line x1="500" y1="250" x2="525" y2="250" style="stroke:black;stroke-width:2" />
      <use xlink:href="#pfeil" transform="translate(512, 250) rotate(180)"/>
      <rect x="525" y="225" width="50" height="50" style="fill:coral;stroke-width:2;stroke:black" />
      <text x="550" y="257" text-anchor="middle" style="font-family: Arial; font-size: 20px;">I16</text>

      <line x1="500" y1="325" x2="525" y2="325" style="stroke:black;stroke-width:2" />
      <use xlink:href="#pfeil" transform="translate(512, 325) rotate(180)"/>
      <rect x="525" y="300" width="50" height="50" style="fill:khaki;stroke-width:2;stroke:black" />
      <text x="550" y="332" text-anchor="middle" style="font-family: Arial; font-size: 20px;">E1</text>

      <text x="550" y="400" text-anchor="middle" style="font-family: Arial; font-size: 20px;">...</text>

      <line x1="500" y1="475" x2="525" y2="475" style="stroke:black;stroke-width:2" />
      <use xlink:href="#pfeil" transform="translate(512, 475) rotate(180)"/>
      <rect x="525" y="450" width="50" height="50" style="fill:khaki;stroke-width:2;stroke:black" />
      <text x="550" y="482" text-anchor="middle" style="font-family: Arial; font-size: 20px;">E48</text>
    </g>
  </defs>

  <use x="0" y="0" xlink:href="#struktur"/>
  <use xlink:href="#pfeil" transform="translate(0, 262) rotate(90)"/>
  <line x1="425" y1="550" x2="650" y2="550" style="stroke:black;stroke-width:2" />
  <use xlink:href="#pfeil" transform="translate(537, 550) rotate(0)"/>
  <use x="650" y="0" xlink:href="#struktur"/>
  <use xlink:href="#pfeil" transform="translate(662, 550) rotate(0)"/>
  <use xlink:href="#pfeil" transform="translate(650, 262) rotate(270)"/>
  <rect x="675" y="0" width="400" height="50" style="fill:white;stroke-width:2;stroke:white" />
  <line x1="670" y1="25" x2="875" y2="25" style="stroke:black;stroke-width:2" />
  <line x1="875" y1="25" x2="875" y2="55" style="stroke:black;stroke-width:2" />
</svg>
