<?xml version="1.0" encoding="UTF-8"?>
<!DOCTYPE svg PUBLIC "-//W3C//DTD SVG 1.1//EN" "http://www.w3.org/Graphics/SVG/1.1/DTD/svg11.dtd">

<svg xmlns="http://www.w3.org/2000/svg"
     xmlns:xlink="http://www.w3.org/1999/xlink" xmlns:ev="http://www.w3.org/2001/xml-events"
     version="1.1" baseProfile="full"
     width="970" height="570" viewBox="-10 -10 970 570">

  <title>Berechnung</title>

  <defs>
    <g id="input">
      <rect width="50" height="50" style="fill:lightgreen;stroke-width:2;stroke:black" />
      <polygon points="1,49 49,1 49,49" style="stroke:none;stroke-width:0;fill:lightblue" />
    </g>
  </defs>

  <line x1="100" y1="50" x2="200" y2="500" style="stroke:grey;stroke-width:5" />
  <line x1="200" y1="50" x2="300" y2="500" style="stroke:grey;stroke-width:5" />
  <line x1="300" y1="50" x2="400" y2="500" style="stroke:grey;stroke-width:5" />
  <line x1="500" y1="50" x2="600" y2="500" style="stroke:grey;stroke-width:5" />
  <line x1="600" y1="50" x2="700" y2="500" style="stroke:grey;stroke-width:5" />
  <line x1="700" y1="50" x2="800" y2="500" style="stroke:grey;stroke-width:5" />

  <use x="75" y="0" xlink:href="#input"/>
  <use x="175" y="0" xlink:href="#input"/>
  <use x="275" y="0" xlink:href="#input"/>
  <use x="375" y="0" xlink:href="#input"/>
  <use x="475" y="0" xlink:href="#input"/>
  <use x="575" y="0" xlink:href="#input"/>
  <use x="675" y="0" xlink:href="#input"/>
  <use x="775" y="0" xlink:href="#input"/>
  <rect x="875" y="0" width="50" height="50" style="fill:coral;stroke-width:2;stroke:black" />
  <polygon points="876,49 924,1 924,49" style="stroke:none;stroke-width:0;fill:khaki" />
  <text x="100" y="35" text-anchor="middle" style="font-family: Arial; font-size: 32px;">A</text>
  <text x="200" y="35" text-anchor="middle" style="font-family: Arial; font-size: 32px;">B</text>
  <text x="300" y="35" text-anchor="middle" style="font-family: Arial; font-size: 32px;">C</text>
  <text x="400" y="35" text-anchor="middle" style="font-family: Arial; font-size: 32px;">D</text>
  <text x="500" y="35" text-anchor="middle" style="font-family: Arial; font-size: 32px;">E</text>
  <text x="600" y="35" text-anchor="middle" style="font-family: Arial; font-size: 32px;">F</text>
  <text x="700" y="35" text-anchor="middle" style="font-family: Arial; font-size: 32px;">G</text>
  <text x="800" y="35" text-anchor="middle" style="font-family: Arial; font-size: 32px;">H</text>
  <text x="900" y="35" text-anchor="middle" style="font-family: Arial; font-size: 32px;">I</text>

  <rect x="0" y="100" width="100" height="50" style="fill:white;stroke-width:2;stroke:black" />
  <rect x="150" y="100" width="100" height="50" style="fill:white;stroke-width:2;stroke:black" />
  <text x="50" y="135" text-anchor="middle" style="font-family: Arial; font-size: 32px;">BSIG0</text>
  <text x="200" y="135" text-anchor="middle" style="font-family: Arial; font-size: 32px;">MAJ</text>

  <rect x="400" y="100" width="100" height="50" style="fill:white;stroke-width:2;stroke:black" />
  <rect x="550" y="100" width="100" height="50" style="fill:white;stroke-width:2;stroke:black" />
  <text x="450" y="135" text-anchor="middle" style="font-family: Arial; font-size: 32px;">BSIG1</text>
  <text x="600" y="135" text-anchor="middle" style="font-family: Arial; font-size: 32px;">CH</text>

  <rect x="850" y="100" width="100" height="50" style="fill:lightgreen;stroke-width:2;stroke:black" />
  <text x="900" y="135" text-anchor="middle" style="font-family: Arial; font-size: 32px;">K+</text>

  <!-- BSIG0/MAJ -->
  <rect x="25" y="200" width="100" height="50" style="fill:white;stroke-width:2;stroke:black" />
  <text x="75" y="235" text-anchor="middle" style="font-family: Arial; font-size: 32px;">+</text>

  <!-- BSIG1/CH -->
  <rect x="525" y="200" width="100" height="50" style="fill:white;stroke-width:2;stroke:black" />
  <text x="575" y="235" text-anchor="middle" style="font-family: Arial; font-size: 32px;">+</text>

  <!-- H/I -->
  <rect x="775" y="200" width="100" height="50" style="fill:white;stroke-width:2;stroke:black" />
  <text x="825" y="235" text-anchor="middle" style="font-family: Arial; font-size: 32px;">+</text>

  <!-- BSIG1/CH/(H/I) -->
  <rect x="550" y="300" width="100" height="50" style="fill:white;stroke-width:2;stroke:black" />
  <text x="600" y="335" text-anchor="middle" style="font-family: Arial; font-size: 32px;">+</text>

  <rect x="50" y="400" width="100" height="50" style="fill:white;stroke-width:2;stroke:black" />
  <text x="100" y="435" text-anchor="middle" style="font-family: Arial; font-size: 32px;">+</text>

  <rect x="450" y="400" width="100" height="50" style="fill:white;stroke-width:2;stroke:black" />
  <text x="500" y="435" text-anchor="middle" style="font-family: Arial; font-size: 32px;">+</text>

  <rect x="75" y="500" width="50" height="50" style="fill:lightblue;stroke-width:2;stroke:black" />
  <rect x="175" y="500" width="50" height="50" style="fill:lightblue;stroke-width:2;stroke:black" />
  <rect x="275" y="500" width="50" height="50" style="fill:lightblue;stroke-width:2;stroke:black" />
  <rect x="375" y="500" width="50" height="50" style="fill:lightblue;stroke-width:2;stroke:black" />
  <rect x="475" y="500" width="50" height="50" style="fill:lightblue;stroke-width:2;stroke:black" />
  <rect x="575" y="500" width="50" height="50" style="fill:lightblue;stroke-width:2;stroke:black" />
  <rect x="675" y="500" width="50" height="50" style="fill:lightblue;stroke-width:2;stroke:black" />
  <rect x="775" y="500" width="50" height="50" style="fill:lightblue;stroke-width:2;stroke:black" />
  <text x="100" y="535" text-anchor="middle" style="font-family: Arial; font-size: 32px;">A'</text>
  <text x="200" y="535" text-anchor="middle" style="font-family: Arial; font-size: 32px;">B'</text>
  <text x="300" y="535" text-anchor="middle" style="font-family: Arial; font-size: 32px;">C'</text>
  <text x="400" y="535" text-anchor="middle" style="font-family: Arial; font-size: 32px;">D'</text>
  <text x="500" y="535" text-anchor="middle" style="font-family: Arial; font-size: 32px;">E'</text>
  <text x="600" y="535" text-anchor="middle" style="font-family: Arial; font-size: 32px;">F'</text>
  <text x="700" y="535" text-anchor="middle" style="font-family: Arial; font-size: 32px;">G'</text>
  <text x="800" y="535" text-anchor="middle" style="font-family: Arial; font-size: 32px;">H'</text>

  <!-- A -->
  <line x1="100" y1="50" x2="100" y2="75" style="stroke:black;stroke-width:2" />
  <line x1="50" y1="75" x2="175" y2="75" style="stroke:black;stroke-width:2" />
  <line x1="50" y1="75" x2="50" y2="100" style="stroke:black;stroke-width:2" />
  <line x1="175" y1="75" x2="175" y2="100" style="stroke:black;stroke-width:2" />
  <circle cx ="100" cy ="75" r ="5" />

  <!-- B -->
  <line x1="200" y1="50" x2="200" y2="100" style="stroke:black;stroke-width:2" />

  <!-- C -->
  <line x1="300" y1="50" x2="300" y2="75" style="stroke:black;stroke-width:2" />
  <line x1="225" y1="75" x2="300" y2="75" style="stroke:black;stroke-width:2" />
  <line x1="225" y1="75" x2="225" y2="100" style="stroke:black;stroke-width:2" />

  <!-- D -->
  <line x1="375" y1="50" x2="375" y2="225" style="stroke:black;stroke-width:2" />
  <line x1="375" y1="225" x2="475" y2="225" style="stroke:black;stroke-width:2" />
  <line x1="475" y1="225" x2="475" y2="400" style="stroke:black;stroke-width:2" />

  <!-- E -->
  <line x1="500" y1="50" x2="500" y2="75" style="stroke:black;stroke-width:2" />
  <line x1="450" y1="75" x2="575" y2="75" style="stroke:black;stroke-width:2" />
  <line x1="450" y1="75" x2="450" y2="100" style="stroke:black;stroke-width:2" />
  <line x1="575" y1="75" x2="575" y2="100" style="stroke:black;stroke-width:2" />
  <circle cx ="500" cy ="75" r ="5" />

  <!-- F -->
  <line x1="600" y1="50" x2="600" y2="100" style="stroke:black;stroke-width:2" />

  <!-- G -->
  <line x1="700" y1="50" x2="700" y2="75" style="stroke:black;stroke-width:2" />
  <line x1="625" y1="75" x2="700" y2="75" style="stroke:black;stroke-width:2" />
  <line x1="625" y1="75" x2="625" y2="100" style="stroke:black;stroke-width:2" />

  <!-- H -->
  <line x1="800" y1="50" x2="800" y2="200" style="stroke:black;stroke-width:2" />

  <!-- I -->
  <line x1="900" y1="50" x2="900" y2="100" style="stroke:black;stroke-width:2" />

  <!-- BSIG0 -->
  <line x1="50" y1="150" x2="50" y2="200" style="stroke:black;stroke-width:2" />

  <!-- MAJ -->
  <line x1="200" y1="150" x2="200" y2="175" style="stroke:black;stroke-width:2" />
  <line x1="200" y1="175" x2="100" y2="175" style="stroke:black;stroke-width:2" />
  <line x1="100" y1="175" x2="100" y2="200" style="stroke:black;stroke-width:2" />

  <!-- BSIG1 -->
  <line x1="450" y1="150" x2="450" y2="175" style="stroke:black;stroke-width:2" />
  <line x1="450" y1="175" x2="550" y2="175" style="stroke:black;stroke-width:2" />
  <line x1="550" y1="175" x2="550" y2="200" style="stroke:black;stroke-width:2" />

  <!-- CH -->
  <line x1="600" y1="150" x2="600" y2="200" style="stroke:black;stroke-width:2" />

  <!-- C+ -->
  <line x1="900" y1="150" x2="900" y2="175" style="stroke:black;stroke-width:2" />
  <line x1="850" y1="175" x2="900" y2="175" style="stroke:black;stroke-width:2" />
  <line x1="850" y1="175" x2="850" y2="200" style="stroke:black;stroke-width:2" />

  <!-- + BSIG0/MAJ-->
  <line x1="75" y1="250" x2="75" y2="400" style="stroke:red;stroke-width:4" />
  <text x="85" y="335" text-anchor="left" style="font-family: Arial; font-size: 32px; font-weight: bold; fill: red">X</text>

  <!-- + BSIG1/CH-->
  <line x1="575" y1="250" x2="575" y2="300" style="stroke:green;stroke-width:4" />
  <text x="585" y="285" text-anchor="left" style="font-family: Arial; font-size: 32px; font-weight: bold; fill: green">Z</text>

  <!-- + H/I -->
  <line x1="825" y1="250" x2="825" y2="275" style="stroke:black;stroke-width:2" />
  <line x1="625" y1="275" x2="825" y2="275" style="stroke:black;stroke-width:2" />
  <line x1="625" y1="275" x2="625" y2="300" style="stroke:black;stroke-width:2" />

  <!-- + (BSIG1/CH)/(H/I) -->
  <line x1="600" y1="350" x2="600" y2="375" style="stroke:blue;stroke-width:4" />
  <line x1="125" y1="375" x2="600" y2="375" style="stroke:blue;stroke-width:4" />
  <line x1="125" y1="375" x2="125" y2="400" style="stroke:blue;stroke-width:4" />
  <line x1="525" y1="375" x2="525" y2="400" style="stroke:blue;stroke-width:4" />
  <circle cx ="525" cy ="375" r ="5" style="fill: blue" />
  <text x="420" y="365" text-anchor="middle" style="font-family: Arial; font-size: 32px; font-weight: bold; fill: blue">Y</text>

  <!-- A -->
  <line x1="100" y1="450" x2="100" y2="500" style="stroke:black;stroke-width:2" />

  <!-- E -->
  <line x1="500" y1="450" x2="500" y2="500" style="stroke:black;stroke-width:2" />

</svg>
