<?xml version="1.0" encoding="UTF-8" standalone="no"?>
<svg
   xmlns:dc="http://purl.org/dc/elements/1.1/"
   xmlns:cc="http://creativecommons.org/ns#"
   xmlns:rdf="http://www.w3.org/1999/02/22-rdf-syntax-ns#"
   xmlns:svg="http://www.w3.org/2000/svg"
   xmlns="http://www.w3.org/2000/svg"
   xmlns:sodipodi="http://sodipodi.sourceforge.net/DTD/sodipodi-0.dtd"
   xmlns:inkscape="http://www.inkscape.org/namespaces/inkscape"
   width="130mm"
   height="120mm"
   viewBox="0 0 13000 12000"
   version="1.1"
   stroke-width="28.222"
   stroke-linejoin="round"
   xml:space="preserve"
   id="svg2"
   inkscape:version="0.48.4 r9939"
   sodipodi:docname="data_legend.svg"><metadata
     id="metadata258"><rdf:RDF><cc:Work
         rdf:about=""><dc:format>image/svg+xml</dc:format><dc:type
           rdf:resource="http://purl.org/dc/dcmitype/StillImage" /></cc:Work></rdf:RDF></metadata><defs
     id="defs256" /><sodipodi:namedview
     pagecolor="#ffffff"
     bordercolor="#666666"
     borderopacity="1"
     objecttolerance="10"
     gridtolerance="10"
     guidetolerance="10"
     inkscape:pageopacity="0"
     inkscape:pageshadow="2"
     inkscape:window-width="1366"
     inkscape:window-height="716"
     id="namedview254"
     showgrid="false"
     inkscape:zoom="1"
     inkscape:cx="504.92815"
     inkscape:cy="212.59842"
     inkscape:window-x="0"
     inkscape:window-y="0"
     inkscape:window-maximized="1"
     inkscape:current-layer="svg2" /><path
     fill="rgb(114,159,207)"
     stroke="none"
     d="M -148,1 L 12852,1 12852,12001 -148,12001 -148,1 Z"
     id="path4" /><path
     fill="none"
     stroke="rgb(52,101,164)"
     stroke-linejoin="round"
     d="M -148,1 L 12852,1 12852,12001 -148,12001 -148,1 Z"
     id="path6" /><path
     d="M 6352,12001 L -148,12001 -148,1 12852,1 12852,12001 6352,12001 Z"
     id="path8"
     stroke="none"
     fill="rgb(255,255,255)" /><path
     fill="none"
     stroke="rgb(179,179,179)"
     stroke-linejoin="round"
     d="M 4254,11114 L 733,11114 733,440 7775,440 7775,11114 4254,11114 Z"
     id="path10" /><path
     fill="none"
     stroke="rgb(179,179,179)"
     stroke-linejoin="round"
     d="M 7775,11112 L 733,11112"
     id="path12" /><path
     fill="none"
     stroke="rgb(179,179,179)"
     stroke-linejoin="round"
     d="M 7775,7554 L 733,7554"
     id="path14" /><path
     fill="none"
     stroke="rgb(179,179,179)"
     stroke-linejoin="round"
     d="M 7775,3997 L 733,3997"
     id="path16" /><path
     fill="none"
     stroke="rgb(179,179,179)"
     stroke-linejoin="round"
     d="M 7775,439 L 733,439"
     id="path18" /><path
     fill="none"
     stroke="rgb(179,179,179)"
     stroke-linejoin="round"
     d="M 733,11263 L 733,11113"
     id="path20" /><path
     fill="none"
     stroke="rgb(179,179,179)"
     stroke-linejoin="round"
     d="M 3080,11263 L 3080,11113"
     id="path22" /><path
     fill="none"
     stroke="rgb(179,179,179)"
     stroke-linejoin="round"
     d="M 5428,11263 L 5428,11113"
     id="path24" /><path
     fill="none"
     stroke="rgb(179,179,179)"
     stroke-linejoin="round"
     d="M 7775,11263 L 7775,11113"
     id="path26" /><path
     fill="none"
     stroke="rgb(179,179,179)"
     stroke-linejoin="round"
     d="M 733,11113 L 7775,11113"
     id="path28" /><path
     fill="none"
     stroke="rgb(179,179,179)"
     stroke-linejoin="round"
     d="M 583,11112 L 733,11112"
     id="path30" /><path
     fill="none"
     stroke="rgb(179,179,179)"
     stroke-linejoin="round"
     d="M 583,7554 L 733,7554"
     id="path32" /><path
     fill="none"
     stroke="rgb(179,179,179)"
     stroke-linejoin="round"
     d="M 583,3997 L 733,3997"
     id="path34" /><path
     fill="none"
     stroke="rgb(179,179,179)"
     stroke-linejoin="round"
     d="M 583,439 L 733,439"
     id="path36" /><path
     fill="none"
     stroke="rgb(179,179,179)"
     stroke-linejoin="round"
     d="M 733,11113 L 733,439"
     id="path38" /><path
     fill="none"
     stroke="rgb(179,179,179)"
     stroke-linejoin="round"
     d="M 7925,11113 L 7775,11113"
     id="path40" /><path
     fill="none"
     stroke="rgb(179,179,179)"
     stroke-linejoin="round"
     d="M 7925,11113 L 7775,11113"
     id="path42" /><path
     fill="none"
     stroke="rgb(179,179,179)"
     stroke-linejoin="round"
     d="M 7925,9333 L 7775,9333"
     id="path44" /><path
     fill="none"
     stroke="rgb(179,179,179)"
     stroke-linejoin="round"
     d="M 7925,9333 L 7775,9333"
     id="path46" /><path
     fill="none"
     stroke="rgb(179,179,179)"
     stroke-linejoin="round"
     d="M 7925,7554 L 7775,7554"
     id="path48" /><path
     fill="none"
     stroke="rgb(179,179,179)"
     stroke-linejoin="round"
     d="M 7925,7554 L 7775,7554"
     id="path50" /><path
     fill="none"
     stroke="rgb(179,179,179)"
     stroke-linejoin="round"
     d="M 7925,5776 L 7775,5776"
     id="path52" /><path
     fill="none"
     stroke="rgb(179,179,179)"
     stroke-linejoin="round"
     d="M 7925,5776 L 7775,5776"
     id="path54" /><path
     fill="none"
     stroke="rgb(179,179,179)"
     stroke-linejoin="round"
     d="M 7925,3997 L 7775,3997"
     id="path56" /><path
     fill="none"
     stroke="rgb(179,179,179)"
     stroke-linejoin="round"
     d="M 7925,3997 L 7775,3997"
     id="path58" /><path
     fill="none"
     stroke="rgb(179,179,179)"
     stroke-linejoin="round"
     d="M 7925,2218 L 7775,2218"
     id="path60" /><path
     fill="none"
     stroke="rgb(179,179,179)"
     stroke-linejoin="round"
     d="M 7925,2218 L 7775,2218"
     id="path62" /><path
     fill="none"
     stroke="rgb(179,179,179)"
     stroke-linejoin="round"
     d="M 7775,11113 L 7775,439"
     id="path64" /><path
     fill="rgb(153,255,102)"
     stroke="none"
     d="M 5623,7554 L 7579,7554 7579,3997 5623,3997 5623,7554 Z"
     id="path66" /><path
     fill="none"
     stroke="rgb(0,0,0)"
     stroke-width="70"
     stroke-linejoin="round"
     d="M 5623,7554 L 7579,7554 7579,3997 5623,3997 5623,7554 Z"
     id="path68" /><path
     fill="rgb(153,255,102)"
     stroke="none"
     d="M 3276,6950 L 5232,6950 5232,5063 3276,5063 3276,6950 Z"
     id="path70" /><path
     fill="none"
     stroke="rgb(0,0,0)"
     stroke-width="70"
     stroke-linejoin="round"
     d="M 3276,6950 L 5232,6950 5232,5063 3276,5063 3276,6950 Z"
     id="path72" /><path
     fill="rgb(153,255,102)"
     stroke="none"
     d="M 928,9967 L 2885,9967 2885,9031 928,9031 928,9967 Z"
     id="path74" /><path
     fill="none"
     stroke="rgb(0,0,0)"
     stroke-width="70"
     stroke-linejoin="round"
     d="M 928,9967 L 2885,9967 2885,9031 928,9031 928,9967 Z"
     id="path76" /><path
     fill="rgb(0,102,204)"
     stroke="none"
     d="M 2031,9572 L 2031,9566 2031,9561 2030,9556 2029,9550 2028,9545 2027,9540 2026,9534 2024,9529 2022,9524 2020,9519 2017,9514 2015,9509 2012,9505 2009,9500 2006,9496 2002,9492 1998,9487 1995,9483 1991,9480 1987,9476 1982,9473 1978,9469 1973,9466 1969,9464 1964,9461 1959,9459 1954,9456 1949,9454 1944,9453 1939,9451 1933,9450 1928,9449 1923,9448 1917,9447 1912,9447 1906,9447 1901,9447 1895,9447 1890,9448 1885,9449 1879,9450 1874,9451 1869,9453 1864,9454 1858,9456 1854,9459 1849,9461 1844,9464 1839,9466 1835,9469 1830,9473 1826,9476 1822,9480 1818,9483 1814,9487 1811,9492 1807,9496 1804,9500 1801,9505 1798,9509 1795,9514 1793,9519 1791,9524 1789,9529 1787,9534 1786,9540 1784,9545 1783,9550 1782,9556 1782,9561 1781,9566 1781,9572 1781,9577 1782,9583 1782,9588 1783,9594 1784,9599 1786,9604 1787,9609 1789,9615 1791,9620 1793,9625 1795,9630 1798,9634 1801,9639 1804,9644 1807,9648 1811,9652 1814,9656 1818,9660 1822,9664 1826,9668 1830,9671 1835,9674 1839,9677 1844,9680 1849,9683 1854,9685 1858,9687 1864,9689 1869,9691 1874,9693 1879,9694 1885,9695 1890,9696 1895,9696 1901,9697 1906,9697 1912,9697 1917,9696 1923,9696 1928,9695 1933,9694 1939,9693 1944,9691 1949,9689 1954,9687 1959,9685 1964,9683 1969,9680 1973,9677 1978,9674 1982,9671 1987,9668 1991,9664 1995,9660 1998,9656 2002,9652 2006,9648 2009,9644 2012,9639 2015,9634 2017,9630 2020,9625 2022,9620 2024,9615 2026,9609 2027,9604 2028,9599 2029,9594 2030,9588 2031,9583 2031,9577 2031,9572 Z"
     id="path78" /><path
     fill="none"
     stroke="rgb(0,102,204)"
     stroke-linejoin="round"
     d="M 2031,9572 L 2031,9566 2031,9561 2030,9556 2029,9550 2028,9545 2027,9540 2026,9534 2024,9529 2022,9524 2020,9519 2017,9514 2015,9509 2012,9505 2009,9500 2006,9496 2002,9492 1998,9487 1995,9483 1991,9480 1987,9476 1982,9473 1978,9469 1973,9466 1969,9464 1964,9461 1959,9459 1954,9456 1949,9454 1944,9453 1939,9451 1933,9450 1928,9449 1923,9448 1917,9447 1912,9447 1906,9447 1901,9447 1895,9447 1890,9448 1885,9449 1879,9450 1874,9451 1869,9453 1864,9454 1858,9456 1854,9459 1849,9461 1844,9464 1839,9466 1835,9469 1830,9473 1826,9476 1822,9480 1818,9483 1814,9487 1811,9492 1807,9496 1804,9500 1801,9505 1798,9509 1795,9514 1793,9519 1791,9524 1789,9529 1787,9534 1786,9540 1784,9545 1783,9550 1782,9556 1782,9561 1781,9566 1781,9572 1781,9577 1782,9583 1782,9588 1783,9594 1784,9599 1786,9604 1787,9609 1789,9615 1791,9620 1793,9625 1795,9630 1798,9634 1801,9639 1804,9644 1807,9648 1811,9652 1814,9656 1818,9660 1822,9664 1826,9668 1830,9671 1835,9674 1839,9677 1844,9680 1849,9683 1854,9685 1858,9687 1864,9689 1869,9691 1874,9693 1879,9694 1885,9695 1890,9696 1895,9696 1901,9697 1906,9697 1912,9697 1917,9696 1923,9696 1928,9695 1933,9694 1939,9693 1944,9691 1949,9689 1954,9687 1959,9685 1964,9683 1969,9680 1973,9677 1978,9674 1982,9671 1987,9668 1991,9664 1995,9660 1998,9656 2002,9652 2006,9648 2009,9644 2012,9639 2015,9634 2017,9630 2020,9625 2022,9620 2024,9615 2026,9609 2027,9604 2028,9599 2029,9594 2030,9588 2031,9583 2031,9577 2031,9572 Z"
     id="path80" /><path
     fill="rgb(0,102,204)"
     stroke="none"
     d="M 4379,6409 L 4379,6403 4379,6398 4378,6392 4377,6387 4376,6382 4375,6376 4373,6371 4371,6366 4369,6361 4367,6356 4365,6351 4362,6346 4359,6341 4356,6337 4353,6333 4350,6328 4346,6324 4342,6320 4338,6316 4334,6313 4330,6309 4326,6306 4321,6303 4317,6300 4312,6298 4307,6295 4302,6293 4297,6291 4292,6289 4286,6288 4281,6287 4276,6286 4270,6285 4265,6284 4259,6284 4254,6284 4249,6284 4243,6284 4238,6285 4232,6286 4227,6287 4222,6288 4216,6289 4211,6291 4206,6293 4201,6295 4196,6298 4192,6300 4187,6303 4182,6306 4178,6309 4174,6313 4170,6316 4166,6320 4162,6324 4158,6328 4155,6333 4152,6337 4149,6341 4146,6346 4143,6351 4141,6356 4139,6361 4137,6366 4135,6371 4133,6376 4132,6382 4131,6387 4130,6392 4129,6398 4129,6403 4129,6409 4129,6414 4129,6420 4130,6425 4131,6430 4132,6436 4133,6441 4135,6446 4137,6451 4139,6456 4141,6461 4143,6466 4146,6471 4149,6476 4152,6480 4155,6485 4158,6489 4162,6493 4166,6497 4170,6501 4174,6504 4178,6508 4182,6511 4187,6514 4192,6517 4196,6520 4201,6522 4206,6524 4211,6526 4216,6528 4222,6529 4227,6531 4232,6532 4238,6533 4243,6533 4249,6534 4254,6534 4259,6534 4265,6533 4270,6533 4276,6532 4281,6531 4286,6529 4292,6528 4297,6526 4302,6524 4307,6522 4312,6520 4317,6517 4321,6514 4326,6511 4330,6508 4334,6504 4338,6501 4342,6497 4346,6493 4350,6489 4353,6485 4356,6480 4359,6476 4362,6471 4365,6466 4367,6461 4369,6456 4371,6451 4373,6446 4375,6441 4376,6436 4377,6430 4378,6425 4379,6420 4379,6414 4379,6409 Z"
     id="path82" /><path
     fill="none"
     stroke="rgb(0,102,204)"
     stroke-linejoin="round"
     d="M 4379,6409 L 4379,6403 4379,6398 4378,6392 4377,6387 4376,6382 4375,6376 4373,6371 4371,6366 4369,6361 4367,6356 4365,6351 4362,6346 4359,6341 4356,6337 4353,6333 4350,6328 4346,6324 4342,6320 4338,6316 4334,6313 4330,6309 4326,6306 4321,6303 4317,6300 4312,6298 4307,6295 4302,6293 4297,6291 4292,6289 4286,6288 4281,6287 4276,6286 4270,6285 4265,6284 4259,6284 4254,6284 4249,6284 4243,6284 4238,6285 4232,6286 4227,6287 4222,6288 4216,6289 4211,6291 4206,6293 4201,6295 4196,6298 4192,6300 4187,6303 4182,6306 4178,6309 4174,6313 4170,6316 4166,6320 4162,6324 4158,6328 4155,6333 4152,6337 4149,6341 4146,6346 4143,6351 4141,6356 4139,6361 4137,6366 4135,6371 4133,6376 4132,6382 4131,6387 4130,6392 4129,6398 4129,6403 4129,6409 4129,6414 4129,6420 4130,6425 4131,6430 4132,6436 4133,6441 4135,6446 4137,6451 4139,6456 4141,6461 4143,6466 4146,6471 4149,6476 4152,6480 4155,6485 4158,6489 4162,6493 4166,6497 4170,6501 4174,6504 4178,6508 4182,6511 4187,6514 4192,6517 4196,6520 4201,6522 4206,6524 4211,6526 4216,6528 4222,6529 4227,6531 4232,6532 4238,6533 4243,6533 4249,6534 4254,6534 4259,6534 4265,6533 4270,6533 4276,6532 4281,6531 4286,6529 4292,6528 4297,6526 4302,6524 4307,6522 4312,6520 4317,6517 4321,6514 4326,6511 4330,6508 4334,6504 4338,6501 4342,6497 4346,6493 4350,6489 4353,6485 4356,6480 4359,6476 4362,6471 4365,6466 4367,6461 4369,6456 4371,6451 4373,6446 4375,6441 4376,6436 4377,6430 4378,6425 4379,6420 4379,6414 4379,6409 Z"
     id="path84" /><path
     fill="rgb(0,102,204)"
     stroke="none"
     d="M 6726,4682 L 6726,4677 6725,4671 6725,4666 6724,4661 6723,4655 6721,4650 6720,4645 6718,4640 6716,4634 6714,4630 6712,4625 6709,4620 6706,4615 6703,4611 6700,4606 6696,4602 6693,4598 6689,4594 6685,4590 6681,4587 6677,4583 6672,4580 6668,4577 6663,4574 6658,4571 6653,4569 6649,4567 6643,4565 6638,4563 6633,4562 6628,4560 6622,4559 6617,4558 6612,4558 6606,4557 6601,4557 6595,4557 6590,4558 6584,4558 6579,4559 6574,4560 6568,4562 6563,4563 6558,4565 6553,4567 6548,4569 6543,4571 6538,4574 6534,4577 6529,4580 6525,4583 6520,4587 6516,4590 6512,4594 6509,4598 6505,4602 6501,4606 6498,4611 6495,4615 6492,4620 6490,4625 6487,4630 6485,4634 6483,4640 6481,4645 6480,4650 6479,4655 6478,4661 6477,4666 6476,4671 6476,4677 6476,4682 6476,4688 6476,4693 6477,4699 6478,4704 6479,4709 6480,4715 6481,4720 6483,4725 6485,4730 6487,4735 6490,4740 6492,4745 6495,4749 6498,4754 6501,4758 6505,4763 6509,4767 6512,4771 6516,4774 6520,4778 6525,4781 6529,4785 6534,4788 6538,4791 6543,4793 6548,4796 6553,4798 6558,4800 6563,4802 6568,4803 6574,4804 6579,4805 6584,4806 6590,4807 6595,4807 6601,4807 6606,4807 6612,4807 6617,4806 6622,4805 6628,4804 6633,4803 6638,4802 6643,4800 6649,4798 6653,4796 6658,4793 6663,4791 6668,4788 6672,4785 6677,4781 6681,4778 6685,4774 6689,4771 6693,4767 6696,4763 6700,4758 6703,4754 6706,4749 6709,4745 6712,4740 6714,4735 6716,4730 6718,4725 6720,4720 6721,4715 6723,4709 6724,4704 6725,4699 6725,4693 6726,4688 6726,4682 Z"
     id="path86" /><path
     fill="none"
     stroke="rgb(0,102,204)"
     stroke-linejoin="round"
     d="M 6726,4682 L 6726,4677 6725,4671 6725,4666 6724,4661 6723,4655 6721,4650 6720,4645 6718,4640 6716,4634 6714,4630 6712,4625 6709,4620 6706,4615 6703,4611 6700,4606 6696,4602 6693,4598 6689,4594 6685,4590 6681,4587 6677,4583 6672,4580 6668,4577 6663,4574 6658,4571 6653,4569 6649,4567 6643,4565 6638,4563 6633,4562 6628,4560 6622,4559 6617,4558 6612,4558 6606,4557 6601,4557 6595,4557 6590,4558 6584,4558 6579,4559 6574,4560 6568,4562 6563,4563 6558,4565 6553,4567 6548,4569 6543,4571 6538,4574 6534,4577 6529,4580 6525,4583 6520,4587 6516,4590 6512,4594 6509,4598 6505,4602 6501,4606 6498,4611 6495,4615 6492,4620 6490,4625 6487,4630 6485,4634 6483,4640 6481,4645 6480,4650 6479,4655 6478,4661 6477,4666 6476,4671 6476,4677 6476,4682 6476,4688 6476,4693 6477,4699 6478,4704 6479,4709 6480,4715 6481,4720 6483,4725 6485,4730 6487,4735 6490,4740 6492,4745 6495,4749 6498,4754 6501,4758 6505,4763 6509,4767 6512,4771 6516,4774 6520,4778 6525,4781 6529,4785 6534,4788 6538,4791 6543,4793 6548,4796 6553,4798 6558,4800 6563,4802 6568,4803 6574,4804 6579,4805 6584,4806 6590,4807 6595,4807 6601,4807 6606,4807 6612,4807 6617,4806 6622,4805 6628,4804 6633,4803 6638,4802 6643,4800 6649,4798 6653,4796 6658,4793 6663,4791 6668,4788 6672,4785 6677,4781 6681,4778 6685,4774 6689,4771 6693,4767 6696,4763 6700,4758 6703,4754 6706,4749 6709,4745 6712,4740 6714,4735 6716,4730 6718,4725 6720,4720 6721,4715 6723,4709 6724,4704 6725,4699 6725,4693 6726,4688 6726,4682 Z"
     id="path88" /><path
     fill="rgb(197,0,11)"
     stroke="none"
     d="M 2031,7554 L 2031,7549 2031,7543 2030,7538 2029,7532 2028,7527 2027,7522 2026,7517 2024,7511 2022,7506 2020,7501 2017,7496 2015,7492 2012,7487 2009,7482 2006,7478 2002,7474 1998,7470 1995,7466 1991,7462 1987,7458 1982,7455 1978,7452 1973,7449 1969,7446 1964,7443 1959,7441 1954,7439 1949,7437 1944,7435 1939,7433 1933,7432 1928,7431 1923,7430 1917,7430 1912,7429 1906,7429 1901,7429 1895,7430 1890,7430 1885,7431 1879,7432 1874,7433 1869,7435 1864,7437 1858,7439 1854,7441 1849,7443 1844,7446 1839,7449 1835,7452 1830,7455 1826,7458 1822,7462 1818,7466 1814,7470 1811,7474 1807,7478 1804,7482 1801,7487 1798,7492 1795,7496 1793,7501 1791,7506 1789,7511 1787,7517 1786,7522 1784,7527 1783,7532 1782,7538 1782,7543 1781,7549 1781,7554 1781,7560 1782,7565 1782,7570 1783,7576 1784,7581 1786,7587 1787,7592 1789,7597 1791,7602 1793,7607 1795,7612 1798,7617 1801,7621 1804,7626 1807,7630 1811,7635 1814,7639 1818,7643 1822,7646 1826,7650 1830,7653 1835,7657 1839,7660 1844,7662 1849,7665 1854,7667 1858,7670 1864,7672 1869,7673 1874,7675 1879,7676 1885,7677 1890,7678 1895,7679 1901,7679 1906,7679 1912,7679 1917,7679 1923,7678 1928,7677 1933,7676 1939,7675 1944,7673 1949,7672 1954,7670 1959,7667 1964,7665 1969,7662 1973,7660 1978,7657 1982,7653 1987,7650 1991,7646 1995,7643 1998,7639 2002,7635 2006,7630 2009,7626 2012,7621 2015,7617 2017,7612 2020,7607 2022,7602 2024,7597 2026,7592 2027,7587 2028,7581 2029,7576 2030,7570 2031,7565 2031,7560 2031,7554 Z"
     id="path90" /><path
     fill="none"
     stroke="rgb(197,0,11)"
     stroke-linejoin="round"
     d="M 2031,7554 L 2031,7549 2031,7543 2030,7538 2029,7532 2028,7527 2027,7522 2026,7517 2024,7511 2022,7506 2020,7501 2017,7496 2015,7492 2012,7487 2009,7482 2006,7478 2002,7474 1998,7470 1995,7466 1991,7462 1987,7458 1982,7455 1978,7452 1973,7449 1969,7446 1964,7443 1959,7441 1954,7439 1949,7437 1944,7435 1939,7433 1933,7432 1928,7431 1923,7430 1917,7430 1912,7429 1906,7429 1901,7429 1895,7430 1890,7430 1885,7431 1879,7432 1874,7433 1869,7435 1864,7437 1858,7439 1854,7441 1849,7443 1844,7446 1839,7449 1835,7452 1830,7455 1826,7458 1822,7462 1818,7466 1814,7470 1811,7474 1807,7478 1804,7482 1801,7487 1798,7492 1795,7496 1793,7501 1791,7506 1789,7511 1787,7517 1786,7522 1784,7527 1783,7532 1782,7538 1782,7543 1781,7549 1781,7554 1781,7560 1782,7565 1782,7570 1783,7576 1784,7581 1786,7587 1787,7592 1789,7597 1791,7602 1793,7607 1795,7612 1798,7617 1801,7621 1804,7626 1807,7630 1811,7635 1814,7639 1818,7643 1822,7646 1826,7650 1830,7653 1835,7657 1839,7660 1844,7662 1849,7665 1854,7667 1858,7670 1864,7672 1869,7673 1874,7675 1879,7676 1885,7677 1890,7678 1895,7679 1901,7679 1906,7679 1912,7679 1917,7679 1923,7678 1928,7677 1933,7676 1939,7675 1944,7673 1949,7672 1954,7670 1959,7667 1964,7665 1969,7662 1973,7660 1978,7657 1982,7653 1987,7650 1991,7646 1995,7643 1998,7639 2002,7635 2006,7630 2009,7626 2012,7621 2015,7617 2017,7612 2020,7607 2022,7602 2024,7597 2026,7592 2027,7587 2028,7581 2029,7576 2030,7570 2031,7565 2031,7560 2031,7554 Z"
     id="path92" /><path
     fill="rgb(197,0,11)"
     stroke="none"
     d="M 4379,9333 L 4379,9328 4379,9322 4378,9317 4377,9312 4376,9306 4375,9301 4373,9296 4371,9291 4369,9285 4367,9281 4365,9276 4362,9271 4359,9266 4356,9262 4353,9257 4350,9253 4346,9249 4342,9245 4338,9241 4334,9238 4330,9234 4326,9231 4321,9228 4317,9225 4312,9222 4307,9220 4302,9218 4297,9216 4292,9214 4286,9213 4281,9211 4276,9210 4270,9209 4265,9209 4259,9208 4254,9208 4249,9208 4243,9209 4238,9209 4232,9210 4227,9211 4222,9213 4216,9214 4211,9216 4206,9218 4201,9220 4196,9222 4192,9225 4187,9228 4182,9231 4178,9234 4174,9238 4170,9241 4166,9245 4162,9249 4158,9253 4155,9257 4152,9262 4149,9266 4146,9271 4143,9276 4141,9281 4139,9285 4137,9291 4135,9296 4133,9301 4132,9306 4131,9312 4130,9317 4129,9322 4129,9328 4129,9333 4129,9339 4129,9344 4130,9350 4131,9355 4132,9360 4133,9366 4135,9371 4137,9376 4139,9381 4141,9386 4143,9391 4146,9396 4149,9400 4152,9405 4155,9409 4158,9414 4162,9418 4166,9422 4170,9425 4174,9429 4178,9433 4182,9436 4187,9439 4192,9442 4196,9444 4201,9447 4206,9449 4211,9451 4216,9453 4222,9454 4227,9455 4232,9456 4238,9457 4243,9458 4249,9458 4254,9458 4259,9458 4265,9458 4270,9457 4276,9456 4281,9455 4286,9454 4292,9453 4297,9451 4302,9449 4307,9447 4312,9444 4317,9442 4321,9439 4326,9436 4330,9433 4334,9429 4338,9425 4342,9422 4346,9418 4350,9414 4353,9409 4356,9405 4359,9400 4362,9396 4365,9391 4367,9386 4369,9381 4371,9376 4373,9371 4375,9366 4376,9360 4377,9355 4378,9350 4379,9344 4379,9339 4379,9333 Z"
     id="path94" /><path
     fill="none"
     stroke="rgb(197,0,11)"
     stroke-linejoin="round"
     d="M 4379,9333 L 4379,9328 4379,9322 4378,9317 4377,9312 4376,9306 4375,9301 4373,9296 4371,9291 4369,9285 4367,9281 4365,9276 4362,9271 4359,9266 4356,9262 4353,9257 4350,9253 4346,9249 4342,9245 4338,9241 4334,9238 4330,9234 4326,9231 4321,9228 4317,9225 4312,9222 4307,9220 4302,9218 4297,9216 4292,9214 4286,9213 4281,9211 4276,9210 4270,9209 4265,9209 4259,9208 4254,9208 4249,9208 4243,9209 4238,9209 4232,9210 4227,9211 4222,9213 4216,9214 4211,9216 4206,9218 4201,9220 4196,9222 4192,9225 4187,9228 4182,9231 4178,9234 4174,9238 4170,9241 4166,9245 4162,9249 4158,9253 4155,9257 4152,9262 4149,9266 4146,9271 4143,9276 4141,9281 4139,9285 4137,9291 4135,9296 4133,9301 4132,9306 4131,9312 4130,9317 4129,9322 4129,9328 4129,9333 4129,9339 4129,9344 4130,9350 4131,9355 4132,9360 4133,9366 4135,9371 4137,9376 4139,9381 4141,9386 4143,9391 4146,9396 4149,9400 4152,9405 4155,9409 4158,9414 4162,9418 4166,9422 4170,9425 4174,9429 4178,9433 4182,9436 4187,9439 4192,9442 4196,9444 4201,9447 4206,9449 4211,9451 4216,9453 4222,9454 4227,9455 4232,9456 4238,9457 4243,9458 4249,9458 4254,9458 4259,9458 4265,9458 4270,9457 4276,9456 4281,9455 4286,9454 4292,9453 4297,9451 4302,9449 4307,9447 4312,9444 4317,9442 4321,9439 4326,9436 4330,9433 4334,9429 4338,9425 4342,9422 4346,9418 4350,9414 4353,9409 4356,9405 4359,9400 4362,9396 4365,9391 4367,9386 4369,9381 4371,9376 4373,9371 4375,9366 4376,9360 4377,9355 4378,9350 4379,9344 4379,9339 4379,9333 Z"
     id="path96" /><path
     fill="rgb(197,0,11)"
     stroke="none"
     d="M 6726,2218 L 6726,2212 6725,2207 6725,2201 6724,2196 6723,2191 6721,2185 6720,2180 6718,2175 6716,2170 6714,2165 6712,2160 6709,2155 6706,2151 6703,2146 6700,2142 6696,2137 6693,2133 6689,2129 6685,2126 6681,2122 6677,2118 6672,2115 6668,2112 6663,2109 6658,2107 6653,2104 6649,2102 6643,2100 6638,2098 6633,2097 6628,2096 6622,2095 6617,2094 6612,2093 6606,2093 6601,2093 6595,2093 6590,2093 6584,2094 6579,2095 6574,2096 6568,2097 6563,2098 6558,2100 6553,2102 6548,2104 6543,2107 6538,2109 6534,2112 6529,2115 6525,2118 6520,2122 6516,2126 6512,2129 6509,2133 6505,2137 6501,2142 6498,2146 6495,2151 6492,2155 6490,2160 6487,2165 6485,2170 6483,2175 6481,2180 6480,2185 6479,2191 6478,2196 6477,2201 6476,2207 6476,2212 6476,2218 6476,2223 6476,2229 6477,2234 6478,2239 6479,2245 6480,2250 6481,2255 6483,2260 6485,2266 6487,2270 6490,2275 6492,2280 6495,2285 6498,2289 6501,2294 6505,2298 6509,2302 6512,2306 6516,2310 6520,2313 6525,2317 6529,2320 6534,2323 6538,2326 6543,2329 6548,2331 6553,2333 6558,2335 6563,2337 6568,2338 6574,2340 6579,2341 6584,2342 6590,2342 6595,2343 6601,2343 6606,2343 6612,2342 6617,2342 6622,2341 6628,2340 6633,2338 6638,2337 6643,2335 6649,2333 6653,2331 6658,2329 6663,2326 6668,2323 6672,2320 6677,2317 6681,2313 6685,2310 6689,2306 6693,2302 6696,2298 6700,2294 6703,2289 6706,2285 6709,2280 6712,2275 6714,2270 6716,2266 6718,2260 6720,2255 6721,2250 6723,2245 6724,2239 6725,2234 6725,2229 6726,2223 6726,2218 Z"
     id="path98" /><path
     fill="none"
     stroke="rgb(197,0,11)"
     stroke-linejoin="round"
     d="M 6726,2218 L 6726,2212 6725,2207 6725,2201 6724,2196 6723,2191 6721,2185 6720,2180 6718,2175 6716,2170 6714,2165 6712,2160 6709,2155 6706,2151 6703,2146 6700,2142 6696,2137 6693,2133 6689,2129 6685,2126 6681,2122 6677,2118 6672,2115 6668,2112 6663,2109 6658,2107 6653,2104 6649,2102 6643,2100 6638,2098 6633,2097 6628,2096 6622,2095 6617,2094 6612,2093 6606,2093 6601,2093 6595,2093 6590,2093 6584,2094 6579,2095 6574,2096 6568,2097 6563,2098 6558,2100 6553,2102 6548,2104 6543,2107 6538,2109 6534,2112 6529,2115 6525,2118 6520,2122 6516,2126 6512,2129 6509,2133 6505,2137 6501,2142 6498,2146 6495,2151 6492,2155 6490,2160 6487,2165 6485,2170 6483,2175 6481,2180 6480,2185 6479,2191 6478,2196 6477,2201 6476,2207 6476,2212 6476,2218 6476,2223 6476,2229 6477,2234 6478,2239 6479,2245 6480,2250 6481,2255 6483,2260 6485,2266 6487,2270 6490,2275 6492,2280 6495,2285 6498,2289 6501,2294 6505,2298 6509,2302 6512,2306 6516,2310 6520,2313 6525,2317 6529,2320 6534,2323 6538,2326 6543,2329 6548,2331 6553,2333 6558,2335 6563,2337 6568,2338 6574,2340 6579,2341 6584,2342 6590,2342 6595,2343 6601,2343 6606,2343 6612,2342 6617,2342 6622,2341 6628,2340 6633,2338 6638,2337 6643,2335 6649,2333 6653,2331 6658,2329 6663,2326 6668,2323 6672,2320 6677,2317 6681,2313 6685,2310 6689,2306 6693,2302 6696,2298 6700,2294 6703,2289 6706,2285 6709,2280 6712,2275 6714,2270 6716,2266 6718,2260 6720,2255 6721,2250 6723,2245 6724,2239 6725,2234 6725,2229 6726,2223 6726,2218 Z"
     id="path100" /><text
     class="TextShape"
     id="text102"><tspan
       class="TextParagraph"
       font-family="Arial, sans-serif"
       font-size="353px"
       font-weight="400"
       id="tspan104"><tspan
         class="TextPosition"
         x="1813"
         y="11681"
         id="tspan106"><tspan
           fill="rgb(33,33,33)"
           stroke="none"
           id="tspan108">9</tspan></tspan></tspan></text>
<text
     class="TextShape"
     id="text110"><tspan
       class="TextParagraph"
       font-family="Arial, sans-serif"
       font-size="353px"
       font-weight="400"
       id="tspan112"><tspan
         class="TextPosition"
         x="4069"
         y="11681"
         id="tspan114"><tspan
           fill="rgb(33,33,33)"
           stroke="none"
           id="tspan116">10</tspan></tspan></tspan></text>
<text
     class="TextShape"
     id="text118"><tspan
       class="TextParagraph"
       font-family="Arial, sans-serif"
       font-size="353px"
       font-weight="400"
       id="tspan120"><tspan
         class="TextPosition"
         x="6417"
         y="11681"
         id="tspan122"><tspan
           fill="rgb(33,33,33)"
           stroke="none"
           id="tspan124">11</tspan></tspan></tspan></text>
<text
     class="TextShape"
     id="text126"><tspan
       class="TextParagraph"
       font-family="Arial, sans-serif"
       font-size="353px"
       font-weight="400"
       id="tspan128"><tspan
         class="TextPosition"
         x="298"
         y="11233"
         id="tspan130"><tspan
           fill="rgb(33,33,33)"
           stroke="none"
           id="tspan132">4</tspan></tspan></tspan></text>
<text
     class="TextShape"
     id="text134"><tspan
       class="TextParagraph"
       font-family="Arial, sans-serif"
       font-size="353px"
       font-weight="400"
       id="tspan136"><tspan
         class="TextPosition"
         x="298"
         y="7675"
         id="tspan138"><tspan
           fill="rgb(33,33,33)"
           stroke="none"
           id="tspan140">8</tspan></tspan></tspan></text>
<text
     class="TextShape"
     id="text142"><tspan
       class="TextParagraph"
       font-family="Arial, sans-serif"
       font-size="353px"
       font-weight="400"
       id="tspan144"><tspan
         class="TextPosition"
         x="113"
         y="4117"
         id="tspan146"><tspan
           fill="rgb(33,33,33)"
           stroke="none"
           id="tspan148">16</tspan></tspan></tspan></text>
<text
     class="TextShape"
     id="text150"><tspan
       class="TextParagraph"
       font-family="Arial, sans-serif"
       font-size="353px"
       font-weight="400"
       id="tspan152"><tspan
         class="TextPosition"
         x="113"
         y="559"
         id="tspan154"><tspan
           fill="rgb(33,33,33)"
           stroke="none"
           id="tspan156">32</tspan></tspan></tspan></text>
<text
     class="TextShape"
     id="text158"><tspan
       class="TextParagraph"
       font-family="Liberation Sans, sans-serif"
       font-size="353px"
       font-weight="400"
       id="tspan160"><tspan
         class="TextPosition"
         x="8025"
         y="11234"
         id="tspan162"><tspan
           fill="rgb(0,0,0)"
           stroke="none"
           id="tspan164">0</tspan></tspan></tspan></text>
<text
     class="TextShape"
     id="text166"><tspan
       class="TextParagraph"
       font-family="Liberation Sans, sans-serif"
       font-size="353px"
       font-weight="400"
       id="tspan168"><tspan
         class="TextPosition"
         x="8025"
         y="9454"
         id="tspan170"><tspan
           fill="rgb(0,0,0)"
           stroke="none"
           id="tspan172">1</tspan></tspan></tspan></text>
<text
     class="TextShape"
     id="text174"><tspan
       class="TextParagraph"
       font-family="Liberation Sans, sans-serif"
       font-size="353px"
       font-weight="400"
       id="tspan176"><tspan
         class="TextPosition"
         x="8025"
         y="7675"
         id="tspan178"><tspan
           fill="rgb(0,0,0)"
           stroke="none"
           id="tspan180">2</tspan></tspan></tspan></text>
<text
     class="TextShape"
     id="text182"><tspan
       class="TextParagraph"
       font-family="Liberation Sans, sans-serif"
       font-size="353px"
       font-weight="400"
       id="tspan184"><tspan
         class="TextPosition"
         x="8025"
         y="5896"
         id="tspan186"><tspan
           fill="rgb(0,0,0)"
           stroke="none"
           id="tspan188">3</tspan></tspan></tspan></text>
<text
     class="TextShape"
     id="text190"><tspan
       class="TextParagraph"
       font-family="Liberation Sans, sans-serif"
       font-size="353px"
       font-weight="400"
       id="tspan192"><tspan
         class="TextPosition"
         x="8025"
         y="4117"
         id="tspan194"><tspan
           fill="rgb(0,0,0)"
           stroke="none"
           id="tspan196">4</tspan></tspan></tspan></text>
<text
     class="TextShape"
     id="text198"><tspan
       class="TextParagraph"
       font-family="Liberation Sans, sans-serif"
       font-size="353px"
       font-weight="400"
       id="tspan200"><tspan
         class="TextPosition"
         x="8025"
         y="2338"
         id="tspan202"><tspan
           fill="rgb(0,0,0)"
           stroke="none"
           id="tspan204">5</tspan></tspan></tspan></text>
<path
     fill="rgb(217,217,217)"
     stroke="none"
     d="M 10557,6797 L 8472,6797 8472,5204 12642,5204 12642,6797 10557,6797 Z"
     id="path206" /><path
     fill="none"
     stroke="rgb(0,0,0)"
     stroke-linejoin="round"
     d="M 10557,6797 L 8472,6797 8472,5204 12642,5204 12642,6797 10557,6797 Z"
     id="path208" /><path
     fill="rgb(153,255,102)"
     stroke="none"
     d="M 8694,5608 L 8588,5608 8588,5399 8799,5399 8799,5608 8694,5608 Z"
     id="path210" /><path
     d="M 8694,5608 L 8588,5608 8588,5399 8799,5399 8799,5608 8694,5608 Z"
     id="path212"
     stroke-linejoin="round"
     stroke="rgb(0,0,0)"
     fill="none" /><path
     d="m 8798,6008.1111 0,-5 0,-5 -1,-4 -1,-5 -1,-4 -1,-5 -1,-4 -1,-5 -2,-4 -2,-4 -2,-4 -2,-4 -3,-4 -2,-4 -3,-4 -3,-3 -3,-4 -3,-3 -3,-3 -4,-3 -3,-3 -4,-3 -4,-2 -4,-3 -4,-2 -4,-2 -4,-2 -4,-2 -5,-1 -4,-1 -5,-1 -4,-1 -5,-1 -4,0 -5,0 -4,0 -5,0 -5,0 -4,0 -5,1 -4,1 -5,1 -4,1 -5,1 -4,2 -4,2 -4,2 -4,2 -4,3 -4,2 -4,3 -3,3 -4,3 -3,3 -3,3 -3,4 -3,3 -3,4 -2,4 -3,4 -2,4 -2,4 -2,4 -2,4 -1,5 -1,4 -1,5 -1,4 -1,5 0,4 0,5 0,5 0,4 0,5 0,4 1,5 1,4 1,5 1,4 1,5 2,4 2,4 2,4 2,4 3,4 2,4 3,4 3,3 3,4 3,3 3,3 4,3 3,3 4,3 4,2 4,3 4,2 4,2 4,2 4,2 5,1 4,1 5,1 4,1 5,1 4,1 5,0 5,0 4,0 5,0 4,-1 5,-1 4,-1 5,-1 4,-1 5,-1 4,-2 4,-2 4,-2 4,-2 4,-3 4,-2 4,-3 3,-3 4,-3 3,-3 3,-3 3,-4 3,-3 3,-4 2,-4 3,-4 2,-4 2,-4 2,-4 2,-4 1,-5 1,-4 1,-5 1,-4 1,-5 1,-4 0,-5 0,-4 z"
     id="path214"
     inkscape:connector-curvature="0"
     style="fill:#0066cc;stroke:none" /><path
     d="m 8798,6008.1111 0,-5 0,-5 -1,-4 -1,-5 -1,-4 -1,-5 -1,-4 -1,-5 -2,-4 -2,-4 -2,-4 -2,-4 -3,-4 -2,-4 -3,-4 -3,-3 -3,-4 -3,-3 -3,-3 -4,-3 -3,-3 -4,-3 -4,-2 -4,-3 -4,-2 -4,-2 -4,-2 -4,-2 -5,-1 -4,-1 -5,-1 -4,-1 -5,-1 -4,0 -5,0 -4,0 -5,0 -5,0 -4,0 -5,1 -4,1 -5,1 -4,1 -5,1 -4,2 -4,2 -4,2 -4,2 -4,3 -4,2 -4,3 -3,3 -4,3 -3,3 -3,3 -3,4 -3,3 -3,4 -2,4 -3,4 -2,4 -2,4 -2,4 -2,4 -1,5 -1,4 -1,5 -1,4 -1,5 0,4 0,5 0,5 0,4 0,5 0,4 1,5 1,4 1,5 1,4 1,5 2,4 2,4 2,4 2,4 3,4 2,4 3,4 3,3 3,4 3,3 3,3 4,3 3,3 4,3 4,2 4,3 4,2 4,2 4,2 4,2 5,1 4,1 5,1 4,1 5,1 4,1 5,0 5,0 4,0 5,0 4,-1 5,-1 4,-1 5,-1 4,-1 5,-1 4,-2 4,-2 4,-2 4,-2 4,-3 4,-2 4,-3 3,-3 4,-3 3,-3 3,-3 3,-4 3,-3 3,-4 2,-4 3,-4 2,-4 2,-4 2,-4 2,-4 1,-5 1,-4 1,-5 1,-4 1,-5 1,-4 0,-5 0,-4 z"
     id="path216"
     inkscape:connector-curvature="0"
     style="fill:none;stroke:#0066cc;stroke-linejoin:round" /><path
     d="m 8798,6506.1111 0,-5 0,-5 -1,-4 -1,-5 -1,-4 -1,-5 -1,-4 -1,-5 -2,-4 -2,-4 -2,-4 -2,-4 -3,-4 -2,-4 -3,-4 -3,-3 -3,-4 -3,-3 -3,-3 -4,-3 -3,-3 -4,-3 -4,-2 -4,-3 -4,-2 -4,-2 -4,-2 -4,-2 -5,-1 -4,-1 -5,-1 -4,-1 -5,-1 -4,0 -5,0 -4,0 -5,0 -5,0 -4,0 -5,1 -4,1 -5,1 -4,1 -5,1 -4,2 -4,2 -4,2 -4,2 -4,3 -4,2 -4,3 -3,3 -4,3 -3,3 -3,3 -3,4 -3,3 -3,4 -2,4 -3,4 -2,4 -2,4 -2,4 -2,4 -1,5 -1,4 -1,5 -1,4 -1,5 0,4 0,5 0,5 0,4 0,5 0,4 1,5 1,4 1,5 1,4 1,5 2,4 2,4 2,4 2,4 3,4 2,4 3,4 3,3 3,4 3,3 3,3 4,3 3,3 4,3 4,2 4,3 4,2 4,2 4,2 4,2 5,1 4,1 5,1 4,1 5,1 4,1 5,0 5,0 4,0 5,0 4,-1 5,-1 4,-1 5,-1 4,-1 5,-1 4,-2 4,-2 4,-2 4,-2 4,-3 4,-2 4,-3 3,-3 4,-3 3,-3 3,-3 3,-4 3,-3 3,-4 2,-4 3,-4 2,-4 2,-4 2,-4 2,-4 1,-5 1,-4 1,-5 1,-4 1,-5 1,-4 0,-5 0,-4 z"
     id="path218"
     inkscape:connector-curvature="0"
     style="fill:#c5000b;stroke:none" /><path
     d="m 8798,6506.1111 0,-5 0,-5 -1,-4 -1,-5 -1,-4 -1,-5 -1,-4 -1,-5 -2,-4 -2,-4 -2,-4 -2,-4 -3,-4 -2,-4 -3,-4 -3,-3 -3,-4 -3,-3 -3,-3 -4,-3 -3,-3 -4,-3 -4,-2 -4,-3 -4,-2 -4,-2 -4,-2 -4,-2 -5,-1 -4,-1 -5,-1 -4,-1 -5,-1 -4,0 -5,0 -4,0 -5,0 -5,0 -4,0 -5,1 -4,1 -5,1 -4,1 -5,1 -4,2 -4,2 -4,2 -4,2 -4,3 -4,2 -4,3 -3,3 -4,3 -3,3 -3,3 -3,4 -3,3 -3,4 -2,4 -3,4 -2,4 -2,4 -2,4 -2,4 -1,5 -1,4 -1,5 -1,4 -1,5 0,4 0,5 0,5 0,4 0,5 0,4 1,5 1,4 1,5 1,4 1,5 2,4 2,4 2,4 2,4 3,4 2,4 3,4 3,3 3,4 3,3 3,3 4,3 3,3 4,3 4,2 4,3 4,2 4,2 4,2 4,2 5,1 4,1 5,1 4,1 5,1 4,1 5,0 5,0 4,0 5,0 4,-1 5,-1 4,-1 5,-1 4,-1 5,-1 4,-2 4,-2 4,-2 4,-2 4,-3 4,-2 4,-3 3,-3 4,-3 3,-3 3,-3 3,-4 3,-3 3,-4 2,-4 3,-4 2,-4 2,-4 2,-4 2,-4 1,-5 1,-4 1,-5 1,-4 1,-5 1,-4 0,-5 0,-4 z"
     id="path220"
     inkscape:connector-curvature="0"
     style="fill:none;stroke:#c5000b;stroke-linejoin:round" /><text
     class="TextShape"
     id="text222"><tspan
       class="TextParagraph"
       font-family="Liberation Sans, sans-serif"
       font-size="353px"
       font-weight="400"
       id="tspan224"><tspan
         class="TextPosition"
         x="8899"
         y="5622"
         id="tspan226"><tspan
           id="tspan228"
           style="fill:#000000;stroke:none">Zeitbereich mit dem</tspan></tspan></tspan></text>
<text
     class="TextShape"
     id="text238"><tspan
       class="TextParagraph"
       font-family="Liberation Sans, sans-serif"
       font-size="353px"
       font-weight="400"
       id="tspan240"><tspan
         class="TextPosition"
         x="8899"
         y="6119"
         id="tspan242"><tspan
           id="tspan244"
           style="fill:#000000;stroke:none">arithmetischen Mittel</tspan></tspan></tspan></text>
<text
     class="TextShape"
     id="text246"><tspan
       class="TextParagraph"
       font-family="Liberation Sans, sans-serif"
       font-size="353px"
       font-weight="400"
       id="tspan248"><tspan
         class="TextPosition"
         x="8899"
         y="6617"
         id="tspan250"><tspan
           id="tspan252"
           style="fill:#000000;stroke:none">Verschiedene Resultate</tspan></tspan></tspan></text>
</svg>