<?xml version="1.0" encoding="UTF-8" standalone="no"?>
<!DOCTYPE svg PUBLIC "-//W3C//DTD SVG 1.1//EN"
 "http://www.w3.org/Graphics/SVG/1.1/DTD/svg11.dtd">
<!-- Generated by graphviz version 2.36.0 (20140111.2315)
 -->
<!-- Title: G Pages: 1 -->
<svg width="214pt" height="46pt"
 viewBox="0.00 0.00 214.00 46.00" xmlns="http://www.w3.org/2000/svg" xmlns:xlink="http://www.w3.org/1999/xlink">
<g id="graph0" class="graph" transform="scale(1 1) rotate(0) translate(4 42)">
<title>G</title>
<polygon fill="white" stroke="none" points="-4,4 -4,-42 210,-42 210,4 -4,4"/>
<!-- 0 -->
<g id="node1" class="node"><title>0</title>
<polygon fill="red" stroke="black" points="38,-38 0,-38 0,-0 38,-0 38,-38"/>
<text text-anchor="middle" x="19" y="-22.8" font-family="Times,serif" font-size="14.00">A</text>
<text text-anchor="middle" x="19" y="-7.8" font-family="Times,serif" font-size="14.00"> </text>
</g>
<!-- 1 -->
<g id="node2" class="node"><title>1</title>
<polygon fill="limegreen" stroke="black" points="94,-38 56,-38 56,-0 94,-0 94,-38"/>
<text text-anchor="middle" x="75" y="-22.8" font-family="Times,serif" font-size="14.00">B</text>
<text text-anchor="middle" x="75" y="-7.8" font-family="Times,serif" font-size="14.00"> </text>
</g>
<!-- 0&#45;&gt;1 -->
<g id="edge1" class="edge"><title>0&#45;&gt;1</title>
<path fill="none" stroke="black" d="M38.25,-19C44.0879,-19 49.9258,-19 55.7637,-19"/>
</g>
<!-- 2 -->
<g id="node3" class="node"><title>2</title>
<polygon fill="red" stroke="black" points="150,-38 112,-38 112,-0 150,-0 150,-38"/>
<text text-anchor="middle" x="131" y="-22.8" font-family="Times,serif" font-size="14.00">C</text>
<text text-anchor="middle" x="131" y="-7.8" font-family="Times,serif" font-size="14.00"> </text>
</g>
<!-- 1&#45;&gt;2 -->
<g id="edge2" class="edge"><title>1&#45;&gt;2</title>
<path fill="none" stroke="black" d="M94.25,-19C100.088,-19 105.926,-19 111.764,-19"/>
</g>
<!-- 3 -->
<g id="node4" class="node"><title>3</title>
<polygon fill="red" stroke="black" points="206,-38 168,-38 168,-0 206,-0 206,-38"/>
<text text-anchor="middle" x="187" y="-22.8" font-family="Times,serif" font-size="14.00">D</text>
<text text-anchor="middle" x="187" y="-7.8" font-family="Times,serif" font-size="14.00"> </text>
</g>
<!-- 2&#45;&gt;3 -->
<g id="edge3" class="edge"><title>2&#45;&gt;3</title>
<path fill="none" stroke="black" d="M150.25,-19C156.088,-19 161.926,-19 167.764,-19"/>
</g>
</g>
</svg>
