<?xml version="1.0" encoding="UTF-8"?>
<svg xmlns="http://www.w3.org/2000/svg" xmlns:xlink="http://www.w3.org/1999/xlink" width="211.283859pt" height="45.781631pt" viewBox="0 0 211.283859 45.781631" version="1.1">
<g id="surface1">
<path style=" stroke:none;fill-rule:nonzero;fill:rgb(96.076965%,0%,7.058716%);fill-opacity:1;" d="M 4 4 L 4 7.199219 L 7.199219 7.199219 L 7.199219 4 Z M 7.199219 7.199219 L 7.199219 10.398438 L 10.398438 10.398438 L 10.398438 7.199219 Z M 10.398438 7.199219 L 13.601562 7.199219 L 13.601562 4 L 10.398438 4 Z M 13.601562 7.199219 L 13.601562 10.398438 L 16.800781 10.398438 L 16.800781 7.199219 Z M 16.800781 7.199219 L 20 7.199219 L 20 4 L 16.800781 4 Z M 16.800781 10.398438 L 16.800781 22.582031 C 16.800781 26.113281 19.667969 28.980469 23.199219 28.980469 C 26.734375 28.980469 29.601562 26.113281 29.601562 22.582031 L 29.601562 4 L 26.398438 4 L 26.398438 22.582031 C 26.398438 24.347656 24.964844 25.78125 23.199219 25.78125 C 21.433594 25.78125 20 24.347656 20 22.582031 L 20 10.398438 Z M 13.601562 10.398438 L 10.398438 10.398438 L 10.398438 22.582031 C 10.398438 29.648438 16.132812 35.382812 23.199219 35.382812 C 30.265625 35.382812 36 29.648438 36 22.582031 L 36 4 L 32.800781 4 L 32.800781 22.582031 C 32.800781 27.878906 28.5 32.179688 23.199219 32.179688 C 17.902344 32.179688 13.601562 27.878906 13.601562 22.582031 Z M 7.199219 10.398438 L 4 10.398438 L 4 22.582031 C 4 33.179688 12.601562 41.78125 23.199219 41.78125 C 33.796875 41.78125 42.398438 33.179688 42.398438 22.582031 L 42.398438 4 L 39.199219 4 L 39.199219 22.582031 C 39.199219 31.414062 32.03125 38.582031 23.199219 38.582031 C 14.367188 38.582031 7.199219 31.414062 7.199219 22.582031 Z M 7.199219 10.398438 "/>
<path style=" stroke:none;fill-rule:nonzero;fill:rgb(0%,0%,0%);fill-opacity:1;" d="M 68.742188 16.40625 L 68.742188 24.394531 C 68.742188 27.140625 66.980469 27.863281 65.414062 27.863281 C 63.882812 27.863281 62.210938 27.105469 62.210938 24.359375 L 62.210938 16.40625 L 60.503906 16.40625 L 60.503906 24.835938 C 60.503906 27.195312 61.964844 29.375 65.363281 29.375 C 68.828125 29.375 70.449219 27.195312 70.449219 24.605469 L 70.449219 16.40625 L 68.742188 16.40625 "/>
<path style=" stroke:none;fill-rule:nonzero;fill:rgb(0%,0%,0%);fill-opacity:1;" d="M 80.472656 22.777344 C 80.472656 20.152344 78.679688 19.574219 77.253906 19.574219 C 75.667969 19.574219 74.808594 20.648438 74.472656 21.140625 L 74.4375 21.140625 L 74.4375 19.835938 L 72.976562 19.835938 L 72.976562 29.042969 L 74.527344 29.042969 L 74.527344 24.027344 C 74.527344 21.527344 76.074219 20.964844 76.953125 20.964844 C 78.46875 20.964844 78.925781 21.773438 78.925781 23.375 L 78.925781 29.042969 L 80.472656 29.042969 L 80.472656 22.777344 "/>
<path style=" stroke:none;fill-rule:nonzero;fill:rgb(0%,0%,0%);fill-opacity:1;" d="M 84.359375 19.835938 L 82.808594 19.835938 L 82.808594 29.042969 L 84.359375 29.042969 L 84.359375 19.835938 M 84.359375 18.164062 L 84.359375 16.40625 L 82.808594 16.40625 L 82.808594 18.164062 L 84.359375 18.164062 "/>
<path style=" stroke:none;fill-rule:nonzero;fill:rgb(0%,0%,0%);fill-opacity:1;" d="M 89.914062 27.335938 L 89.878906 27.335938 L 87.484375 19.835938 L 85.6875 19.835938 L 89.050781 29.042969 L 90.707031 29.042969 L 94.207031 19.835938 L 92.519531 19.835938 L 89.914062 27.335938 "/>
<path style=" stroke:none;fill-rule:nonzero;fill:rgb(0%,0%,0%);fill-opacity:1;" d="M 101.3125 26.15625 C 101.257812 26.84375 100.394531 27.96875 98.933594 27.96875 C 97.15625 27.96875 96.261719 26.859375 96.261719 24.941406 L 102.984375 24.941406 C 102.984375 21.683594 101.679688 19.574219 99.023438 19.574219 C 95.976562 19.574219 94.605469 21.84375 94.605469 24.695312 C 94.605469 27.351562 96.136719 29.304688 98.722656 29.304688 C 100.203125 29.304688 100.800781 28.953125 101.222656 28.671875 C 102.386719 27.898438 102.808594 26.59375 102.859375 26.15625 L 101.3125 26.15625 M 96.261719 23.710938 C 96.261719 22.285156 97.386719 20.964844 98.8125 20.964844 C 100.695312 20.964844 101.292969 22.285156 101.382812 23.710938 L 96.261719 23.710938 "/>
<path style=" stroke:none;fill-rule:nonzero;fill:rgb(0%,0%,0%);fill-opacity:1;" d="M 106.601562 23.691406 C 106.601562 22.355469 107.519531 21.226562 108.960938 21.226562 L 109.542969 21.226562 L 109.542969 19.625 C 109.417969 19.589844 109.332031 19.574219 109.136719 19.574219 C 107.976562 19.574219 107.164062 20.292969 106.550781 21.367188 L 106.515625 21.367188 L 106.515625 19.835938 L 105.054688 19.835938 L 105.054688 29.042969 L 106.601562 29.042969 L 106.601562 23.691406 "/>
<path style=" stroke:none;fill-rule:nonzero;fill:rgb(0%,0%,0%);fill-opacity:1;" d="M 117.445312 22.460938 C 117.445312 22.003906 117.214844 19.574219 113.925781 19.574219 C 112.109375 19.574219 110.4375 20.488281 110.4375 22.511719 C 110.4375 23.78125 111.285156 24.429688 112.570312 24.746094 L 114.363281 25.1875 C 115.683594 25.523438 116.195312 25.769531 116.195312 26.507812 C 116.195312 27.527344 115.191406 27.96875 114.082031 27.96875 C 111.898438 27.96875 111.6875 26.808594 111.636719 26.085938 L 110.140625 26.085938 C 110.191406 27.195312 110.457031 29.304688 114.101562 29.304688 C 116.175781 29.304688 117.742188 28.160156 117.742188 26.261719 C 117.742188 25.011719 117.074219 24.308594 115.15625 23.832031 L 113.605469 23.445312 C 112.410156 23.144531 111.933594 22.96875 111.933594 22.214844 C 111.933594 21.070312 113.289062 20.910156 113.765625 20.910156 C 115.71875 20.910156 115.929688 21.878906 115.949219 22.460938 L 117.445312 22.460938 "/>
<path style=" stroke:none;fill-rule:nonzero;fill:rgb(0%,0%,0%);fill-opacity:1;" d="M 121.105469 19.835938 L 119.554688 19.835938 L 119.554688 29.042969 L 121.105469 29.042969 L 121.105469 19.835938 M 121.105469 18.164062 L 121.105469 16.40625 L 119.554688 16.40625 L 119.554688 18.164062 L 121.105469 18.164062 "/>
<path style=" stroke:none;fill-rule:nonzero;fill:rgb(0%,0%,0%);fill-opacity:1;" d="M 126.820312 21.121094 L 126.820312 19.835938 L 125.339844 19.835938 L 125.339844 17.269531 L 123.792969 17.269531 L 123.792969 19.835938 L 122.542969 19.835938 L 122.542969 21.121094 L 123.792969 21.121094 L 123.792969 27.195312 C 123.792969 28.304688 124.125 29.164062 125.65625 29.164062 C 125.816406 29.164062 126.253906 29.09375 126.820312 29.042969 L 126.820312 27.828125 L 126.273438 27.828125 C 125.957031 27.828125 125.339844 27.828125 125.339844 27.105469 L 125.339844 21.121094 L 126.820312 21.121094 "/>
<path style=" stroke:none;fill-rule:nonzero;fill:rgb(0%,0%,0%);fill-opacity:1;" d="M 129.695312 22.636719 C 129.800781 21.929688 130.046875 20.859375 131.804688 20.859375 C 133.265625 20.859375 133.96875 21.386719 133.96875 22.355469 C 133.96875 23.269531 133.53125 23.410156 133.160156 23.445312 L 130.609375 23.761719 C 128.039062 24.078125 127.808594 25.875 127.808594 26.648438 C 127.808594 28.230469 129.007812 29.304688 130.695312 29.304688 C 132.492188 29.304688 133.425781 28.460938 134.023438 27.808594 C 134.074219 28.515625 134.285156 29.21875 135.660156 29.21875 C 136.011719 29.21875 136.242188 29.113281 136.503906 29.042969 L 136.503906 27.914062 C 136.328125 27.949219 136.136719 27.984375 135.996094 27.984375 C 135.675781 27.984375 135.484375 27.828125 135.484375 27.441406 L 135.484375 22.144531 C 135.484375 19.785156 132.808594 19.574219 132.070312 19.574219 C 129.800781 19.574219 128.339844 20.4375 128.269531 22.636719 L 129.695312 22.636719 M 133.933594 25.855469 C 133.933594 27.089844 132.527344 28.019531 131.082031 28.019531 C 129.921875 28.019531 129.410156 27.421875 129.410156 26.417969 C 129.410156 25.257812 130.625 25.027344 131.382812 24.921875 C 133.300781 24.675781 133.6875 24.535156 133.933594 24.34375 L 133.933594 25.855469 M 131.453125 16.617188 L 129.851562 16.617188 L 129.851562 18.410156 L 131.453125 18.410156 L 131.453125 16.617188 M 134.304688 16.617188 L 132.703125 16.617188 L 132.703125 18.410156 L 134.304688 18.410156 L 134.304688 16.617188 "/>
<path style=" stroke:none;fill-rule:nonzero;fill:rgb(0%,0%,0%);fill-opacity:1;" d="M 141.496094 21.121094 L 141.496094 19.835938 L 140.019531 19.835938 L 140.019531 17.269531 L 138.46875 17.269531 L 138.46875 19.835938 L 137.21875 19.835938 L 137.21875 21.121094 L 138.46875 21.121094 L 138.46875 27.195312 C 138.46875 28.304688 138.804688 29.164062 140.335938 29.164062 C 140.492188 29.164062 140.933594 29.09375 141.496094 29.042969 L 141.496094 27.828125 L 140.949219 27.828125 C 140.632812 27.828125 140.019531 27.828125 140.019531 27.105469 L 140.019531 21.121094 L 141.496094 21.121094 "/>
<path style=" stroke:none;fill-rule:nonzero;fill:rgb(0%,0%,0%);fill-opacity:1;" d="M 149.746094 17.867188 L 152.84375 17.867188 C 154.742188 17.867188 155.464844 18.535156 155.464844 19.714844 C 155.464844 21.261719 154.460938 21.753906 152.824219 21.753906 L 149.746094 21.753906 L 149.746094 17.867188 M 148.039062 29.042969 L 153.476562 29.042969 C 156.273438 29.042969 157.769531 27.335938 157.769531 25.3125 C 157.769531 23.144531 156.308594 22.566406 155.484375 22.230469 C 156.875 21.578125 157.171875 20.417969 157.171875 19.589844 C 157.171875 17.867188 155.957031 16.40625 153.601562 16.40625 L 148.039062 16.40625 L 148.039062 29.042969 M 149.746094 23.144531 L 153.105469 23.144531 C 154.496094 23.144531 156.0625 23.496094 156.0625 25.277344 C 156.0625 26.683594 155.167969 27.582031 153.390625 27.582031 L 149.746094 27.582031 L 149.746094 23.144531 "/>
<path style=" stroke:none;fill-rule:nonzero;fill:rgb(0%,0%,0%);fill-opacity:1;" d="M 161.394531 23.691406 C 161.394531 22.355469 162.3125 21.226562 163.753906 21.226562 L 164.335938 21.226562 L 164.335938 19.625 C 164.210938 19.589844 164.125 19.574219 163.929688 19.574219 C 162.769531 19.574219 161.960938 20.292969 161.34375 21.367188 L 161.308594 21.367188 L 161.308594 19.835938 L 159.847656 19.835938 L 159.847656 29.042969 L 161.394531 29.042969 L 161.394531 23.691406 "/>
<path style=" stroke:none;fill-rule:nonzero;fill:rgb(0%,0%,0%);fill-opacity:1;" d="M 171.78125 26.15625 C 171.726562 26.84375 170.863281 27.96875 169.402344 27.96875 C 167.625 27.96875 166.730469 26.859375 166.730469 24.941406 L 173.453125 24.941406 C 173.453125 21.683594 172.148438 19.574219 169.492188 19.574219 C 166.445312 19.574219 165.074219 21.84375 165.074219 24.695312 C 165.074219 27.351562 166.605469 29.304688 169.191406 29.304688 C 170.671875 29.304688 171.269531 28.953125 171.691406 28.671875 C 172.855469 27.898438 173.277344 26.59375 173.328125 26.15625 L 171.78125 26.15625 M 166.730469 23.710938 C 166.730469 22.285156 167.855469 20.964844 169.28125 20.964844 C 171.164062 20.964844 171.761719 22.285156 171.851562 23.710938 L 166.730469 23.710938 "/>
<path style=" stroke:none;fill-rule:nonzero;fill:rgb(0%,0%,0%);fill-opacity:1;" d="M 175.3125 29.042969 L 176.859375 29.042969 L 176.859375 24.027344 C 176.859375 21.527344 178.410156 20.964844 179.289062 20.964844 C 180.433594 20.964844 180.730469 21.894531 180.730469 22.671875 L 180.730469 29.042969 L 182.28125 29.042969 L 182.28125 23.425781 C 182.28125 22.195312 183.144531 20.964844 184.445312 20.964844 C 185.765625 20.964844 186.152344 21.824219 186.152344 23.09375 L 186.152344 29.042969 L 187.703125 29.042969 L 187.703125 22.671875 C 187.703125 20.082031 185.835938 19.574219 184.851562 19.574219 C 183.425781 19.574219 182.808594 20.207031 182.035156 21.070312 C 181.769531 20.578125 181.242188 19.574219 179.589844 19.574219 C 177.933594 19.574219 177.140625 20.648438 176.808594 21.140625 L 176.773438 21.140625 L 176.773438 19.835938 L 175.3125 19.835938 L 175.3125 29.042969 "/>
<path style=" stroke:none;fill-rule:nonzero;fill:rgb(0%,0%,0%);fill-opacity:1;" d="M 196.253906 26.15625 C 196.203125 26.84375 195.339844 27.96875 193.878906 27.96875 C 192.101562 27.96875 191.203125 26.859375 191.203125 24.941406 L 197.925781 24.941406 C 197.925781 21.683594 196.625 19.574219 193.96875 19.574219 C 190.921875 19.574219 189.550781 21.84375 189.550781 24.695312 C 189.550781 27.351562 191.082031 29.304688 193.667969 29.304688 C 195.144531 29.304688 195.746094 28.953125 196.167969 28.671875 C 197.328125 27.898438 197.75 26.59375 197.804688 26.15625 L 196.253906 26.15625 M 191.203125 23.710938 C 191.203125 22.285156 192.332031 20.964844 193.753906 20.964844 C 195.640625 20.964844 196.238281 22.285156 196.324219 23.710938 L 191.203125 23.710938 "/>
<path style=" stroke:none;fill-rule:nonzero;fill:rgb(0%,0%,0%);fill-opacity:1;" d="M 207.285156 22.777344 C 207.285156 20.152344 205.488281 19.574219 204.0625 19.574219 C 202.480469 19.574219 201.617188 20.648438 201.28125 21.140625 L 201.246094 21.140625 L 201.246094 19.835938 L 199.785156 19.835938 L 199.785156 29.042969 L 201.335938 29.042969 L 201.335938 24.027344 C 201.335938 21.527344 202.882812 20.964844 203.765625 20.964844 C 205.277344 20.964844 205.734375 21.773438 205.734375 23.375 L 205.734375 29.042969 L 207.285156 29.042969 L 207.285156 22.777344 "/>
</g>
</svg>
