<?xml version="1.0" encoding="UTF-8"?>
<!DOCTYPE svg PUBLIC "-//W3C//DTD SVG 1.1//EN" "http://www.w3.org/Graphics/SVG/1.1/DTD/svg11.dtd">

<svg xmlns="http://www.w3.org/2000/svg"
     xmlns:xlink="http://www.w3.org/1999/xlink" xmlns:ev="http://www.w3.org/2001/xml-events"
     version="1.1" baseProfile="full"
     width="395" height="470" viewBox="-10 -10 395 470">

  <title>Erweiterung</title>

  <defs>
    <g id="input">
      <rect width="50" height="50" style="fill:coral;stroke-width:2;stroke:black" />
      <polygon points="1,49 49,1 49,49" style="stroke:none;stroke-width:0;fill:khaki" />
    </g>
  </defs>

  <use x="0" y="0" xlink:href="#input"/>
  <use x="100" y="0" xlink:href="#input"/>
  <use x="200" y="0" xlink:href="#input"/>
  <use x="300" y="0" xlink:href="#input"/>
  <text x="25" y="35" text-anchor="middle" style="font-family: Arial; font-size: 24px;">t-16</text>
  <text x="125" y="35" text-anchor="middle" style="font-family: Arial; font-size: 24px;">t-15</text>
  <text x="225" y="35" text-anchor="middle" style="font-family: Arial; font-size: 24px;">t-7</text>
  <text x="325" y="35" text-anchor="middle" style="font-family: Arial; font-size: 24px;">t-2</text>

  <rect x="75" y="100" width="100" height="50" style="fill:white;stroke-width:2;stroke:black" />
  <rect x="275" y="100" width="100" height="50" style="fill:white;stroke-width:2;stroke:black" />
  <text x="125" y="135" text-anchor="middle" style="font-family: Arial; font-size: 32px;">SSIG0</text>
  <text x="325" y="135" text-anchor="middle" style="font-family: Arial; font-size: 32px;">SSIG1</text>

  <!-- A/SSIG0 -->
  <rect x="25" y="200" width="100" height="50" style="fill:white;stroke-width:2;stroke:black" />
  <text x="75" y="235" text-anchor="middle" style="font-family: Arial; font-size: 32px;">+</text>

  <!-- C/SSIG1 -->
  <rect x="225" y="200" width="100" height="50" style="fill:white;stroke-width:2;stroke:black" />
  <text x="275" y="235" text-anchor="middle" style="font-family: Arial; font-size: 32px;">+</text>

  <!-- +/+ -->
  <rect x="125" y="300" width="100" height="50" style="fill:white;stroke-width:2;stroke:black" />
  <text x="175" y="335" text-anchor="middle" style="font-family: Arial; font-size: 32px;">+</text>

  <rect x="150" y="400" width="50" height="50" style="fill:khaki;stroke-width:2;stroke:black" />
  <text x="175" y="435" text-anchor="middle" style="font-family: Arial; font-size: 32px;">t</text>

  <!-- A -->
  <line x1="25" y1="50" x2="25" y2="175" style="stroke:black;stroke-width:2" />
  <line x1="25" y1="175" x2="50" y2="175" style="stroke:black;stroke-width:2" />
  <line x1="50" y1="175" x2="50" y2="200" style="stroke:black;stroke-width:2" />

  <!-- B -->
  <line x1="125" y1="50" x2="125" y2="100" style="stroke:black;stroke-width:2" />

  <!-- C -->
  <line x1="225" y1="50" x2="225" y2="175" style="stroke:black;stroke-width:2" />
  <line x1="225" y1="175" x2="250" y2="175" style="stroke:black;stroke-width:2" />
  <line x1="250" y1="175" x2="250" y2="200" style="stroke:black;stroke-width:2" />

  <!-- D -->
  <line x1="325" y1="50" x2="325" y2="100" style="stroke:black;stroke-width:2" />

  <!-- SSIG0 -->
  <line x1="125" y1="150" x2="125" y2="175" style="stroke:black;stroke-width:2" />
  <line x1="100" y1="175" x2="125" y2="175" style="stroke:black;stroke-width:2" />
  <line x1="100" y1="175" x2="100" y2="200" style="stroke:black;stroke-width:2" />

  <!-- SSIG1 -->
  <line x1="325" y1="150" x2="325" y2="175" style="stroke:black;stroke-width:2" />
  <line x1="300" y1="175" x2="325" y2="175" style="stroke:black;stroke-width:2" />
  <line x1="300" y1="175" x2="300" y2="200" style="stroke:black;stroke-width:2" />

  <!-- +L -->
  <line x1="75" y1="250" x2="75" y2="275" style="stroke:black;stroke-width:2" />
  <line x1="75" y1="275" x2="150" y2="275" style="stroke:black;stroke-width:2" />
  <line x1="150" y1="275" x2="150" y2="300" style="stroke:black;stroke-width:2" />

  <!-- +R -->
  <line x1="275" y1="250" x2="275" y2="275" style="stroke:black;stroke-width:2" />
  <line x1="200" y1="275" x2="275" y2="275" style="stroke:black;stroke-width:2" />
  <line x1="200" y1="275" x2="200" y2="300" style="stroke:black;stroke-width:2" />

  <!-- +/+ -->
  <line x1="175" y1="350" x2="175" y2="400" style="stroke:black;stroke-width:2" />

</svg>
